# xmcd CD database file
#
# Track frame offsets:
#	300
#	11348
#	20280
#	33507
#	47430
#	59786
#	73810
#	86587
#	98692
#	111853
#	124845
#	140566
#	151437
#	161598
#	176066
#	189071
#	200553
#	212191
#	225348
#	239790
#	249959
#	263708
#	277840
#	291449
#	303037
#
# Disc length: 4187 seconds
#
# Revision: 0
# Processed by: cddbd v1.5.2PL0 Copyright (c) Steve Scherf et al.
# Submitted via: CDex 1.51
#
DISCID=5f105719
DTITLE=Henri Salvador - Voix de toujours cd1
DYEAR=2005
DGENRE=Jazz
TTITLE0=Clopin-clopant
TTITLE1=Maladie d'amour
TTITLE2=Hey ba-ba-re-bop
TTITLE3=C'est la première fois
TTITLE4=J'aurais bien donné dix ans de ma vie
TTITLE5=Open the door, richard ! 
TTITLE6=Silence ! on tourne
TTITLE7=Le petit souper aux chandelles 
TTITLE8=Tout ça
TTITLE9=Mon ange
TTITLE10=Parce que ça me donne du courage
TTITLE11=Le portrait de tante caroline 
TTITLE12=Chanson surréaliste
TTITLE13=Henry salvador s'amuse
TTITLE14=Cheveux dans le vent 
TTITLE15=Un p'tit air dans la caboche
TTITLE16=Vingt-quatre heures par jour
TTITLE17=Ma doudou
TTITLE18=Qui sait, qui sait, qui sait... 
TTITLE19=Ela diz que tem
TTITLE20=Bedelia
TTITLE21=Comme j'aimais
TTITLE22=Son p'tit bonhomme de chemin
TTITLE23=Je ne suis pas 
TTITLE24=Charlot
EXTD=YEAR: 2005
EXTT0=
EXTT1=
EXTT2=
EXTT3=
EXTT4=
EXTT5=
EXTT6=
EXTT7=
EXTT8=
EXTT9=
EXTT10=
EXTT11=
EXTT12=
EXTT13=
EXTT14=
EXTT15=
EXTT16=
EXTT17=
EXTT18=
EXTT19=
EXTT20=
EXTT21=
EXTT22=
EXTT23=
EXTT24=
PLAYORDER=
